<svg width="93" height="36" viewBox="0 0 93 36" fill="none" xmlns="http://www.w3.org/2000/svg">
<rect width="93" height="36" fill="#595959"/>
<rect width="1920" height="4487" transform="translate(-299 -46)" fill="#F9FAFB"/>
<g filter="url(#filter0_d_0_1)">
<rect x="-35" y="-22" width="1392" height="80" rx="16" fill="white"/>
</g>
<path d="M24.0745 0C17.4249 0 12.0372 5.34051 12.0372 11.9318V0H0V11.9318H12.0372C5.38769 11.9318 0 17.2723 0 23.8637V35.7955H12.0372V23.8637C12.0372 30.4523 17.4249 35.7955 24.0745 35.7955H36.1117V23.8637H24.0745C30.7213 23.8637 36.1117 18.5232 36.1117 11.9318C36.109 5.34051 30.7213 0 24.0745 0ZM24.0745 23.8637H12.0372V11.9318H24.0745V23.8637Z" fill="#FDB927"/>
<path d="M34.4531 0.289466H35.5194V3.20006H35.8543V0.289466H36.9206V0H34.4531V0.289466Z" fill="#FDB927"/>
<path d="M37.7224 0.231041C37.8698 0.743582 38.486 2.40071 38.7807 3.20006H39.0888C39.4799 2.19091 40.0747 0.706403 40.2086 0.236353H40.2247C40.2113 0.562998 40.206 1.16583 40.206 1.77663V3.20006H40.5301V0H40.0479C39.63 1.01977 39.0352 2.53083 38.9602 2.7964H38.9521C38.8369 2.41399 38.3279 1.04898 37.9207 0H37.4277V3.20006H37.7465V1.87489C37.7465 1.32517 37.7358 0.597521 37.7117 0.228386H37.7224V0.231041Z" fill="#FDB927"/>
<path d="M40.0534 18.725L38.2129 25.5341H42.0038L43.8444 18.725H40.0534Z" fill="#242424"/>
<path d="M40.1758 18.2468H43.9801L44.3096 16.9934H40.5053L40.1758 18.2468Z" fill="#242424"/>
<path d="M44.2911 24.6949C44.8725 25.3721 45.9013 25.7094 47.3748 25.7094C48.2267 25.7094 48.9367 25.5925 49.5047 25.3562C50.0726 25.1198 50.5388 24.7587 50.9058 24.2727C51.2729 23.7867 51.5783 23.1812 51.8275 22.4536L50.9889 25.5315H54.7798L57.0196 17.2644H53.2286L51.881 22.2358L51.8248 22.4403C51.5676 22.7935 51.2514 23.059 50.8764 23.237C50.5013 23.4149 49.9789 23.5025 49.3091 23.5025C48.575 23.5025 48.0794 23.391 47.8195 23.1679C47.5596 22.9449 47.4685 22.6607 47.5516 22.3155C47.7257 21.5613 48.4866 21.1815 49.8315 21.1709C50.3995 21.1629 50.863 21.2479 51.2193 21.4285C51.5756 21.6091 51.7953 21.8773 51.8784 22.2331C52.1436 20.9451 52.0257 20.0077 51.522 19.4208C51.0184 18.8339 50.1584 18.5418 48.9394 18.5418C48.0499 18.5418 47.2542 18.6746 46.5496 18.9428C45.845 19.211 45.2556 19.5987 44.7841 20.106C44.3126 20.6158 43.9884 21.2373 43.8142 21.9729C43.5517 23.1148 43.7098 24.0204 44.2911 24.6949Z" fill="#242424"/>
<path d="M57.1516 24.8728C57.9071 25.4491 59.2975 25.7385 61.3203 25.7385C61.9418 25.7385 62.5098 25.7253 63.0161 25.6987C63.5225 25.6721 64.0154 25.6217 64.487 25.55C64.9585 25.4783 65.4461 25.3774 65.9498 25.2499L66.5258 23.0988C65.8212 23.2077 65.1594 23.2821 64.5406 23.3245C63.9217 23.3644 63.2974 23.3856 62.6652 23.3856C61.7677 23.3856 61.1381 23.3299 60.7764 23.221C60.4147 23.1121 60.2245 22.9262 60.2058 22.6633H66.7722C67.0937 21.6913 67.1768 20.8999 67.0268 20.2865C66.8767 19.673 66.4642 19.2269 65.789 18.9454C65.1166 18.6639 64.1467 18.5231 62.8822 18.5231C61.1702 18.5231 59.7583 18.8392 58.6519 19.4685C57.5427 20.1006 56.8194 21.038 56.4818 22.2809C56.1737 23.4308 56.3961 24.2965 57.1516 24.8728ZM62.3089 20.9982C63.2894 20.9982 63.6966 21.3355 63.5305 22.0047H60.3424C60.6103 21.3355 61.264 20.9982 62.3089 20.9982Z" fill="#242424"/>
<path d="M67.6395 25.1861C68.1057 25.5526 68.8907 25.7385 69.9891 25.7385C70.7125 25.7385 71.3206 25.6828 71.8082 25.5686C72.2985 25.4544 72.6977 25.2658 73.0111 25.0029C73.3219 24.74 73.5684 24.3894 73.7533 23.9539C73.6434 24.0548 73.472 24.1265 73.2389 24.1717C73.0058 24.2168 72.6173 24.2407 72.0788 24.2407C71.4921 24.2407 71.117 24.2009 70.9509 24.1239C70.7848 24.0469 70.7178 23.9353 70.7446 23.7893C70.7714 23.6432 70.8839 23.5343 71.0822 23.4626C71.2778 23.3909 71.6555 23.3537 72.2154 23.3537C72.8022 23.3537 73.196 23.3909 73.3969 23.4626C73.5979 23.5343 73.7345 23.6299 73.8095 23.7494L73.7533 23.9539L73.3273 25.534H77.1182L78.0398 22.1428C78.2059 21.5267 78.2649 20.9902 78.2193 20.5361C78.1738 20.082 77.9862 19.7049 77.6567 19.4048C77.3272 19.1047 76.8235 18.8816 76.1457 18.7382C75.4679 18.5922 74.5891 18.5205 73.5068 18.5205C72.6012 18.5205 71.752 18.5603 70.9643 18.6373C70.1767 18.7143 69.4024 18.8445 68.6415 19.025L67.9262 21.6674C68.5504 21.4868 69.172 21.3461 69.7935 21.2531C70.4151 21.1575 71.0849 21.1097 71.8002 21.1097C72.5503 21.1097 73.1049 21.1655 73.4639 21.2797C73.8202 21.3939 74.0399 21.5691 74.123 21.8028C74.206 22.0392 74.1953 22.3287 74.0962 22.6739L73.8068 23.7362C73.9086 23.0643 73.7265 22.5677 73.263 22.2437C72.7995 21.9224 72.0788 21.7604 71.0983 21.7604C69.9891 21.7604 69.097 21.9224 68.4192 22.2437C67.7413 22.565 67.3234 23.0351 67.168 23.6538C67.0153 24.3071 67.1707 24.817 67.6395 25.1861Z" fill="#242424"/>
<path d="M50.2476 28.4234C49.752 28.1021 48.8384 27.9401 47.4988 27.9401H40.3135L38.1836 35.7981H41.8781L42.3871 33.9471H44.8599C45.1627 33.9471 45.3716 33.9976 45.4842 34.0959C45.5994 34.1968 45.6342 34.372 45.586 34.627L45.3529 35.7981H49.1304L49.4466 34.149C49.6127 33.331 49.551 32.7494 49.2671 32.3989C48.9831 32.0483 48.4419 31.8757 47.6462 31.8757H46.1754L46.1888 31.8492C47.0675 31.8492 47.7882 31.8067 48.3535 31.719C48.9161 31.6341 49.3581 31.5092 49.6796 31.3446C50.0011 31.1799 50.2369 30.9861 50.395 30.7577C50.5504 30.532 50.6602 30.277 50.7245 29.9955C50.9013 29.2679 50.7406 28.7447 50.2476 28.4234ZM46.7567 31.2198C46.7192 31.4296 46.6094 31.5836 46.4272 31.6819C46.245 31.7801 45.9369 31.8306 45.5056 31.8306H42.9497L43.2793 30.6037H45.8217C46.2343 30.6037 46.5022 30.6541 46.6255 30.7524C46.7514 30.8586 46.7942 31.0126 46.7567 31.2198Z" fill="#242424"/>
<path d="M61.4558 29.7699C60.6949 29.1299 59.3313 28.8085 57.3621 28.8085C55.393 28.8085 53.8686 29.1192 52.7862 29.7407C51.7065 30.3621 51.01 31.2544 50.6992 32.4176C50.3964 33.525 50.6268 34.3987 51.3931 35.0387C52.1566 35.6787 53.5203 36 55.4814 36C57.4425 36 58.9642 35.6893 60.0493 35.0679C61.1343 34.4465 61.8282 33.5807 62.1309 32.4733C62.4417 31.3128 62.2167 30.4099 61.4558 29.7699ZM58.3239 32.4866C58.2141 32.8956 57.9649 33.2036 57.5765 33.4134C57.188 33.6232 56.6843 33.7268 56.0708 33.7268C55.4573 33.7268 55.0099 33.6232 54.7312 33.4134C54.4526 33.2036 54.3669 32.8956 54.4767 32.4866C54.5866 32.0697 54.8411 31.751 55.2403 31.5332C55.6395 31.3155 56.1404 31.2066 56.7459 31.2066C57.3514 31.2066 57.7935 31.3155 58.0721 31.5332C58.3507 31.751 58.4338 32.0697 58.3239 32.4866Z" fill="#242424"/>
<path d="M73.5867 29.7699C72.8258 29.1299 71.4621 28.8085 69.493 28.8085C67.5238 28.8085 65.9994 29.1192 64.9171 29.7407C63.8347 30.3621 63.1408 31.2544 62.83 32.4176C62.5273 33.525 62.7577 34.3987 63.5239 35.0387C64.2902 35.6787 65.6511 36 67.6122 36C69.5734 36 71.0951 35.6893 72.1801 35.0679C73.2652 34.4465 73.9591 33.5807 74.2618 32.4733C74.5726 31.3128 74.3475 30.4099 73.5867 29.7699ZM70.4548 32.4866C70.3449 32.8956 70.0958 33.2036 69.7073 33.4134C69.3188 33.6232 68.8152 33.7268 68.2017 33.7268C67.5881 33.7268 67.1407 33.6232 66.8621 33.4134C66.5835 33.2036 66.4977 32.8956 66.6076 32.4866C66.7174 32.0697 66.9719 31.751 67.3711 31.5332C67.7703 31.3155 68.2713 31.2066 68.8768 31.2066C69.4823 31.2066 69.9243 31.3155 70.2029 31.5332C70.4789 31.751 70.5646 32.0697 70.4548 32.4866Z" fill="#242424"/>
<path d="M92.9659 30.2824C92.8882 29.8017 92.6417 29.43 92.2318 29.1724C91.8192 28.9148 91.1923 28.7846 90.3484 28.7846C89.3785 28.7846 88.5105 29.029 87.7443 29.5202C86.9807 30.0115 86.3913 30.7498 85.9788 31.7404C86.1261 31.1243 86.1475 30.5931 86.0484 30.1549C85.9466 29.7141 85.6921 29.3768 85.2795 29.1405C84.8669 28.9041 84.2588 28.7873 83.4524 28.7873C82.4825 28.7873 81.6118 29.0343 80.8429 29.5282C80.074 30.0222 79.4873 30.7657 79.0854 31.7536L79.8275 28.9891H76.0339L74.1934 35.7982H77.9843L79.0693 31.8068C79.2622 31.751 79.4819 31.7058 79.7284 31.6713C79.9749 31.6341 80.2455 31.6156 80.5402 31.6156C81.1269 31.6156 81.5288 31.7032 81.7484 31.8811C81.9681 32.059 82.019 32.3698 81.8985 32.8133L81.0867 35.7955H84.8776L85.9091 32.0086C85.9171 31.9714 85.9279 31.9395 85.9359 31.9077C85.9439 31.8758 85.9546 31.8413 85.9627 31.8068C86.1556 31.751 86.3753 31.7058 86.6217 31.6713C86.8682 31.6341 87.1388 31.6156 87.4335 31.6156C88.0202 31.6156 88.4221 31.7032 88.6418 31.8811C88.8615 32.059 88.9124 32.3698 88.7918 32.8133L87.9801 35.7955H91.771L92.8024 32.0086C92.9927 31.3394 93.0436 30.7631 92.9659 30.2824Z" fill="#242424"/>
<defs>
<filter id="filter0_d_0_1" x="-51" y="-40" width="1424" height="112" filterUnits="userSpaceOnUse" color-interpolation-filters="sRGB">
<feFlood flood-opacity="0" result="BackgroundImageFix"/>
<feColorMatrix in="SourceAlpha" type="matrix" values="0 0 0 0 0 0 0 0 0 0 0 0 0 0 0 0 0 0 127 0" result="hardAlpha"/>
<feOffset dy="-2"/>
<feGaussianBlur stdDeviation="8"/>
<feComposite in2="hardAlpha" operator="out"/>
<feColorMatrix type="matrix" values="0 0 0 0 0 0 0 0 0 0 0 0 0 0 0 0 0 0 0.05 0"/>
<feBlend mode="normal" in2="BackgroundImageFix" result="effect1_dropShadow_0_1"/>
<feBlend mode="normal" in="SourceGraphic" in2="effect1_dropShadow_0_1" result="shape"/>
</filter>
</defs>
</svg>
